<?xml version="1.0" encoding="UTF-8" standalone="no"?>
<!-- Created with Inkscape (http://www.inkscape.org/) -->

<svg
   xmlns:dc="http://purl.org/dc/elements/1.1/"
   xmlns:cc="http://creativecommons.org/ns#"
   xmlns:rdf="http://www.w3.org/1999/02/22-rdf-syntax-ns#"
   xmlns:svg="http://www.w3.org/2000/svg"
   xmlns="http://www.w3.org/2000/svg"
   xmlns:sodipodi="http://sodipodi.sourceforge.net/DTD/sodipodi-0.dtd"
   xmlns:inkscape="http://www.inkscape.org/namespaces/inkscape"
   width="256"
   height="256"
   id="svg2"
   version="1.1"
   inkscape:version="0.48.4 r9939"
   sodipodi:docname="raptor.rbf.svg">
  <defs
     id="defs4" />
  <sodipodi:namedview
     id="base"
     pagecolor="#ffffff"
     bordercolor="#666666"
     borderopacity="1.0"
     inkscape:pageopacity="0.0"
     inkscape:pageshadow="2"
     inkscape:zoom="1.4"
     inkscape:cx="205.21429"
     inkscape:cy="108.91554"
     inkscape:document-units="px"
     inkscape:current-layer="layer1"
     showgrid="false"
     inkscape:showpageshadow="false"
     inkscape:window-width="1127"
     inkscape:window-height="667"
     inkscape:window-x="1346"
     inkscape:window-y="63"
     inkscape:window-maximized="0"
     showguides="true"
     inkscape:guide-bbox="true" />
  <metadata
     id="metadata7">
    <rdf:RDF>
      <cc:Work
         rdf:about="">
        <dc:format>image/svg+xml</dc:format>
        <dc:type
           rdf:resource="http://purl.org/dc/dcmitype/StillImage" />
        <dc:title></dc:title>
      </cc:Work>
    </rdf:RDF>
  </metadata>
  <g
     inkscape:groupmode="layer"
     id="layer2"
     inkscape:label="Layer" />
  <g
     inkscape:label="Layer 1"
     inkscape:groupmode="layer"
     id="layer1"
     transform="translate(0,-796.36218)"
     style="display:inline">
    <path
       sodipodi:type="arc"
       style="fill:#37abc8;fill-opacity:1;fill-rule:nonzero;stroke:#000000;stroke-width:1.26900005000000000;stroke-linecap:butt;stroke-linejoin:round;stroke-miterlimit:4;stroke-opacity:1;stroke-dasharray:none"
       id="path3873"
       sodipodi:cx="140"
       sodipodi:cy="143.14285"
       sodipodi:rx="125.71429"
       sodipodi:ry="118.57143"
       d="m 265.71429,143.14285 c 0,65.48519 -56.28421,118.57143 -125.71429,118.57143 -69.430083,0 -125.714287,-53.08624 -125.714287,-118.57143 0,-65.485188 56.284204,-118.571424 125.714287,-118.571424 69.43008,0 125.71429,53.086236 125.71429,118.571424 z"
       transform="matrix(1.011156,0,0,1.0720689,-13.704678,771.04605)" />
    <g
       id="g3031"
       style="fill:#000000"
       transform="translate(-20.714286,-7.1428572)">
      <path
         id="path3029"
         style="fill:#000000;fill-opacity:1;fill-rule:nonzero;stroke:#000000;stroke-width:1.26900005;stroke-linecap:butt;stroke-linejoin:round;stroke-miterlimit:4;stroke-opacity:1;stroke-dasharray:none"
         d="m 48.104458,914.87482 c -0.123682,-0.94555 10.137327,-10.07295 3.867517,-12.87485 4.568317,-0.15656 2.107744,8.63504 -3.867517,12.87485 z m 78.324482,114.47648 c 10.76562,-23.7153 18.80887,-48.55373 28.9526,-72.51611 5.1859,-11.95867 -5.24987,-25.59757 -17.86284,-19.43921 -12.44947,2.8994 -24.68806,6.73046 -37.39389,8.40154 -11.886233,2.75026 -26.721584,5.05123 -37.984359,-1.42144 -10.463448,-4.79902 -17.99759,-10.99491 -28.917252,-15.0239 -6.533685,-6.09324 1.985427,-20.49556 6.573863,-29.71132 6.969508,-12.18549 18.562194,-20.97172 31.581297,-25.82307 19.27131,-9.77253 35.887221,-24.47536 56.062351,-32.42826 17.03535,-5.02848 35.41902,-4.8045 51.76048,-12.27941 13.6572,-3.18079 24.68749,8.26229 32.30187,18.02595 13.21906,16.14047 26.57834,34.06713 29.62065,55.23196 1.08565,22.01375 -8.13207,42.69856 -14.84411,63.19617 -5.25964,14.45392 -12.05737,28.91664 -12.84119,44.467 0.38936,8.3152 16.18375,13.3801 14.50943,18.5717 -13.14079,-4.3219 -21.77581,-20.5838 -14.91032,-33.36197 8.32162,-30.99882 25.68257,-60.16754 25.6551,-92.97831 -2.50796,-16.70385 -13.2063,-30.53533 -22.19916,-44.30161 -7.77836,-10.15326 -16.21349,-21.30456 -28.33127,-26.22784 -13.73835,-1.41959 -25.48553,8.75319 -39.20979,7.93714 -16.28577,1.82565 -32.41476,7.4743 -44.96584,18.24293 -17.944262,11.81947 -38.239562,20.04309 -55.072269,33.48972 -8.224323,9.23768 -12.170346,21.23135 -15.835011,32.80974 6.701623,8.96316 17.752518,-2.26767 26.478587,-1.92014 14.181181,-3.81325 28.966143,-5.11522 43.094593,-8.92794 22.41796,-8.93989 45.20089,-20.15837 69.6392,-20.8164 7.91807,0.16206 24.47791,-0.80629 25.14536,2.38047 -11.06617,1.62613 -22.91672,-0.19736 -34.18107,1.68949 -16.8467,1.83413 -34.83487,7.71011 -49.79999,15.65421 -21.130652,8.38548 -43.598445,8.87068 -65.024127,16.32045 -5.437332,5.33704 12.816414,10.77626 16.713009,13.9787 9.371517,4.43404 20.062297,4.69081 29.842113,1.57644 17.991505,-3.35274 35.521405,-8.97476 53.697295,-11.37058 10.85245,2.14939 12.95988,15.17373 10.20236,24.18829 -5.67731,16.59442 -12.13583,33.00642 -19.11034,49.13921 -4.59522,6.3832 -6.18562,21.365 -13.34733,23.2464 z M 71.056695,903.20251 c -5.775466,-9.44952 1.531561,-20.06681 13.34344,-24.25354 9.170374,-5.82561 17.846315,-16.29964 29.416935,-9.78705 4.95041,2.67042 8.49699,19.1924 6.23144,18.46881 -5.19615,-15.2103 -9.37754,-17.41184 -18.91113,-17.10209 -10.095606,4.02991 -16.10899,11.07269 -25.435019,16.47813 -8.974478,6.84235 -2.69859,14.14929 1.988182,20.02102 -0.389427,2.03492 -5.312463,-1.75388 -6.633848,-3.82528 z m 61.297815,-21.60252 c -10.00009,-8.91483 -11.70197,-24.74802 1.97617,-27.5181 6.71154,-5.79373 24.24455,-4.51199 25.28269,-1.30883 -9.42052,-2.17253 -12.97475,2.39877 -11.41905,11.48065 -5.80317,6.23958 -13.63073,8.68727 -15.5716,-1.52893 -0.6121,-3.22193 -4.38613,-1.2568 -5.14726,3.65436 0.78407,4.69222 6.45215,13.78695 4.87905,15.22085 z m 11.69151,-18.68692 c 0.89856,-11.68228 -14.96579,6.63592 -2.58553,1.93276 0.97888,-0.48995 1.7659,-1.22257 2.58553,-1.93276 z"
         inkscape:connector-curvature="0" />
    </g>
    <flowRoot
       xml:space="preserve"
       id="flowRoot3877"
       style="fill:black;stroke:none;stroke-opacity:1;stroke-width:1px;stroke-linejoin:miter;stroke-linecap:butt;fill-opacity:1;font-family:Sans;font-style:normal;font-weight:normal;font-size:40px;line-height:125%;letter-spacing:0px;word-spacing:0px"><flowRegion
         id="flowRegion3879"><rect
           id="rect3881"
           width="120.71429"
           height="64.285713"
           x="15.714286"
           y="81" /></flowRegion><flowPara
         id="flowPara3883" /></flowRoot>    <text
       xml:space="preserve"
       style="font-size:40px;font-style:normal;font-weight:normal;line-height:125%;letter-spacing:0px;word-spacing:0px;fill:#000000;fill-opacity:1;stroke:none;font-family:Sans"
       x="22.142859"
       y="982.36218"
       id="text3885"
       sodipodi:linespacing="125%"><tspan
         sodipodi:role="line"
         id="tspan3887"
         x="22.142859"
         y="982.36218">.RSF</tspan></text>
  </g>
</svg>
